:SAMPLES-PER-SECOND 30
:FULLY-SPECIFIED
:DEGREES
508
root  68.3086 37.8559 -0.0874414 147.969 86.3889 150.038
RightUpLeg  -14.7833 -6.33818 -13.0022
RightLeg  9.62211 15.7921 -0.13585
RightFoot  0.345829 -1.36731 13.3368
RightToes  7.56698e-010 0 -3.6325e-017
Spine  26.5076 -5.75835 -0.584017
Spine1  -1.99574 -6.2212 0.704588
HEad  -18.5288 -0.738896 -18.4827
LeftShoulder1  -0.368979 5.90369 -7.73696
LeftArm  -4.73803 -69.9732 -61.0858
LeftForeArm  -27.179 -47.6217 -13.9591
LeftHand  -0.997437 11.9206 -15.7712
RightShoulder  0.88629 -10.8493 -26.1004
RightArm  173.956 53.8165 83.326
RightForeArm  -99.6281 59.5122 21.1301
RightHand  126.182 58.3767 146.186
LeftUpLeg  -18.4367 2.52518 -1.78109
LeftLeg  20.8412 -3.39623 -1.09208
LeftFoot  -2.87335 0.228001 -2.84767
LeftToes  -2.88401e-009 5.30678e-011 -1.08654e-010
509
root  68.4053 37.8349 0.181467 150.238 85.9654 151.687
RightUpLeg  -15.4045 -4.10635 -12.7972
RightLeg  9.9055 14.0216 -0.724862
RightFoot  1.77738 -1.66971 14.6185
RightToes  7.56698e-010 0 -3.6325e-017
Spine  22.7475 -4.5438 -1.05587
Spine1  4.60889 -5.60621 2.66635
HEad  -20.7875 -3.14657 -18.8117
LeftShoulder1  -0.361125 5.5001 -10.9937
LeftArm  -6.19875 -72.3323 -60.4367
LeftForeArm  -27.228 -46.3185 -13.3624
LeftHand  -0.999235 11.9258 -15.7873
RightShoulder  0.540215 -19.7943 -12.4314
RightArm  -167.51 67.9636 87.4947
RightForeArm  -73.5947 57.0434 20.4378
RightHand  121.483 62.4343 139.626
LeftUpLeg  -19.1193 1.59937 -1.4957
LeftLeg  21.028 -3.00603 -0.939689
LeftFoot  -2.76241 0.207102 -2.53874
LeftToes  -2.88401e-009 5.30678e-011 -1.08654e-010
510
root  68.4912 37.8803 0.444652 152.212 85.546 153.122
RightUpLeg  -16.1672 -3.80413 -12.6955
RightLeg  10.5925 12.9249 -0.547796
RightFoot  3.09663 -1.53941 12.2581
RightToes  7.56698e-010 0 -3.6325e-017
Spine  19.6498 -3.18824 -1.35376
Spine1  9.3125 -5.07873 5.2777
HEad  -21.233 -5.40454 -18.9809
LeftShoulder1  -0.0748955 3.86535 -13.26
LeftArm  -7.76407 -73.0175 -60.31
LeftForeArm  -26.4095 -44.9368 -12.7232
LeftHand  -0.941991 11.6543 -15.4852
RightShoulder  -4.15392 -20.221 18.6767
RightArm  127.214 55.132 -13.9757
RightForeArm  -34.2563 54.077 22.5295
RightHand  91.7872 83.2947 97.6551
LeftUpLeg  -19.3252 1.29785 -1.16317
LeftLeg  20.4623 -3.18023 -0.978319
LeftFoot  -2.70337 0.264891 -3.29293
LeftToes  -2.88401e-009 5.30678e-011 -1.08654e-010
511
root  68.5591 37.8993 0.724824 158.696 84.285 159.148
RightUpLeg  -16.3946 -5.97739 -12.6268
RightLeg  11.0708 13.3794 0.320947
RightFoot  2.9714 -1.49852 12.0614
RightToes  7.56698e-010 0 -3.6325e-017
Spine  17.6744 -2.18874 -1.97638
Spine1  12.7827 -5.24901 8.40891
HEad  -22.2326 -8.08304 -19.0237
LeftShoulder1  0.15065 2.8093 -14.9563
LeftArm  -7.84206 -73.737 -61.4924
LeftForeArm  -26.6127 -43.7549 -12.2452
LeftHand  -0.903355 11.4356 -15.3584
RightShoulder  -2.78167 -27.6278 2.98893
RightArm  137.537 60.0758 4.12008
RightForeArm  -65.7367 75.2294 -15.2051
RightHand  48.837 79.444 54.9067
LeftUpLeg  -19.763 0.615701 -0.870854
LeftLeg  20.2374 -3.82064 -1.22595
LeftFoot  -2.6795 0.309738 -3.87721
LeftToes  -2.88401e-009 5.30678e-011 -1.08654e-010
512
root  68.6328 37.9253 1.02844 162.221 83.0619 162.143
RightUpLeg  -16.5593 -7.15889 -12.4516
RightLeg  11.1263 12.9863 0.467424
RightFoot  2.62252 -1.55559 12.7988
RightToes  7.56698e-010 0 -3.6325e-017
Spine  16.9731 -1.40619 -2.57072
Spine1  14.5385 -5.58084 11.359
HEad  -23.6604 -10.6978 -19.2391
LeftShoulder1  0.176265 2.77441 -17.5277
LeftArm  -5.58045 -74.7875 -63.6853
LeftForeArm  -27.0217 -42.8192 -11.8957
LeftHand  -0.899499 11.3907 -15.4
RightShoulder  -0.169617 -28.4459 -9.03651
RightArm  133.731 62.2883 -18.4234
RightForeArm  131.793 49.911 155.048
RightHand  19.1418 68.769 26.4463
LeftUpLeg  -20.1115 -0.0535189 -0.57318
LeftLeg  19.678 -4.34657 -1.39522
LeftFoot  -2.57244 0.362013 -4.51953
LeftToes  -2.88401e-009 5.30678e-011 -1.08654e-010
513
root  68.6788 37.9783 1.35501 164.565 82.1854 164.049
RightUpLeg  -16.8625 -7.37534 -12.1528
RightLeg  11.3775 12.0943 0.579368
RightFoot  2.69798 -1.47444 12.0841
RightToes  7.56698e-010 0 -3.6325e-017
Spine  17.1753 -1.52976 -1.84653
Spine1  14.8602 -5.55392 11.0087
HEad  -24.7255 -11.8643 -18.7472
LeftShoulder1  0.177173 2.78257 -17.909
LeftArm  -5.64529 -74.9711 -63.6468
LeftForeArm  -27.0137 -41.6185 -11.4388
LeftHand  -0.813246 11.1393 -14.442
RightShoulder  0.620571 -25.0401 -12.8166
RightArm  116.473 29.357 -60.1546
RightForeArm  150.229 59.3361 160.402
RightHand  33.7881 66.684 47.2375
LeftUpLeg  -20.2554 -0.789538 -0.0997268
LeftLeg  18.8959 -4.30862 -1.30938
LeftFoot  -2.32478 0.404995 -4.95812
LeftToes  -2.88401e-009 5.30678e-011 -1.08654e-010
514
root  68.7389 38.042 1.69258 167.076 81.5038 166.014
RightUpLeg  -17.1342 -8.05449 -11.5336
RightLeg  11.2502 11.9524 0.679918
RightFoot  2.71131 -1.44217 11.8124
RightToes  7.56698e-010 0 -3.6325e-017
Spine  18.0006 -1.38631 -1.70746
Spine1  13.8957 -5.50554 11.6602
HEad  -24.8688 -12.5436 -18.1254
LeftShoulder1  0.20313 2.67599 -17.877
LeftArm  -6.87747 -74.6508 -62.6714
LeftForeArm  -27.6556 -40.3409 -11.0025
LeftHand  -0.756719 11.0334 -13.6307
RightShoulder  0.861386 -21.4764 -15.0425
RightArm  169.012 35.0029 -30.2711
RightForeArm  163.839 47.101 168.375
RightHand  21.3242 28.5543 65.1107
LeftUpLeg  -20.4251 -0.945486 0.495286
LeftLeg  17.9884 -4.87039 -1.42116
LeftFoot  -2.09128 0.471491 -5.67177
LeftToes  -2.88401e-009 5.30678e-011 -1.08654e-010
515
root  68.8088 38.0746 2.01883 166.97 81.1001 165.564
RightUpLeg  -17.5957 -8.22402 -11.3443
RightLeg  11.7947 11.4199 0.991607
RightFoot  2.41233 -1.36413 11.4143
RightToes  7.56698e-010 0 -3.6325e-017
Spine  18.4242 -1.17041 -1.13804
Spine1  13.9265 -5.10962 11.3759
HEad  -25.6458 -13.5808 -17.8673
LeftShoulder1  0.217949 2.62732 -18.2327
LeftArm  -6.50646 -75.1396 -62.9486
LeftForeArm  -27.1766 -38.9715 -10.5072
LeftHand  -0.79806 11.1593 -14.1096
RightShoulder  0.993441 -17.429 -17.6216
RightArm  178.876 22.1798 -34.6575
RightForeArm  145.834 61.3717 159.959
RightHand  2.47016 -2.5972 80.7765
LeftUpLeg  -20.3981 -1.06669 0.82219
LeftLeg  17.1981 -5.14438 -1.39433
LeftFoot  -1.67968 0.524198 -6.07942
LeftToes  -2.88401e-009 5.30678e-011 -1.08654e-010
